<mxfile host="Electron" agent="Mozilla/5.0 (Windows NT 10.0; Win64; x64) AppleWebKit/537.36 (KHTML, like Gecko) draw.io/28.0.6 Chrome/138.0.7204.100 Electron/37.2.3 Safari/537.36" version="28.0.6">
  <diagram name="Page-1" id="pgEs2uW55SmicHElTPQp">
    <mxGraphModel dx="1163" dy="815" grid="1" gridSize="10" guides="1" tooltips="1" connect="1" arrows="1" fold="1" page="1" pageScale="1" pageWidth="850" pageHeight="1100" math="0" shadow="0">
      <root>
        <mxCell id="0" />
        <mxCell id="1" parent="0" />
        <mxCell id="X1ZDhWzWRRGKxh8vsN9t-1" value="&lt;font style=&quot;font-size: 15px;&quot;&gt;crm_cust_info&lt;/font&gt;" style="swimlane;fontStyle=0;childLayout=stackLayout;horizontal=1;startSize=30;horizontalStack=0;resizeParent=1;resizeParentMax=0;resizeLast=0;collapsible=1;marginBottom=0;whiteSpace=wrap;html=1;rounded=1;fillColor=none;strokeColor=#6c8ebf;dashed=1;" parent="1" vertex="1">
          <mxGeometry x="377.5" y="200" width="140" height="90" as="geometry">
            <mxRectangle x="300" y="210" width="60" height="30" as="alternateBounds" />
          </mxGeometry>
        </mxCell>
        <mxCell id="X1ZDhWzWRRGKxh8vsN9t-2" value="&lt;font style=&quot;font-size: 15px;&quot;&gt;cst_id&lt;/font&gt;" style="text;strokeColor=none;fillColor=none;align=left;verticalAlign=middle;spacingLeft=4;spacingRight=4;overflow=hidden;points=[[0,0.5],[1,0.5]];portConstraint=eastwest;rotatable=0;whiteSpace=wrap;html=1;dashed=1;" parent="X1ZDhWzWRRGKxh8vsN9t-1" vertex="1">
          <mxGeometry y="30" width="140" height="30" as="geometry" />
        </mxCell>
        <mxCell id="vxh9PUzTvlkFb8qM6Y8l-5" value="&lt;font style=&quot;font-size: 15px;&quot;&gt;cst_key&lt;/font&gt;" style="text;strokeColor=none;fillColor=none;align=left;verticalAlign=middle;spacingLeft=4;spacingRight=4;overflow=hidden;points=[[0,0.5],[1,0.5]];portConstraint=eastwest;rotatable=0;whiteSpace=wrap;html=1;dashed=1;" vertex="1" parent="X1ZDhWzWRRGKxh8vsN9t-1">
          <mxGeometry y="60" width="140" height="30" as="geometry" />
        </mxCell>
        <mxCell id="X1ZDhWzWRRGKxh8vsN9t-5" value="&lt;font style=&quot;font-size: 14px;&quot;&gt;customer Information&lt;/font&gt;" style="text;html=1;align=center;verticalAlign=middle;whiteSpace=wrap;rounded=0;" parent="1" vertex="1">
          <mxGeometry x="372.5" y="170" width="150" height="30" as="geometry" />
        </mxCell>
        <mxCell id="X1ZDhWzWRRGKxh8vsN9t-6" value="&lt;b&gt;&lt;font style=&quot;font-size: 32px;&quot;&gt;Integration Model&lt;/font&gt;&lt;/b&gt;" style="text;html=1;align=center;verticalAlign=middle;whiteSpace=wrap;rounded=0;" parent="1" vertex="1">
          <mxGeometry x="425" y="40" width="285" height="30" as="geometry" />
        </mxCell>
        <mxCell id="X1ZDhWzWRRGKxh8vsN9t-7" value="&lt;font style=&quot;font-size: 15px;&quot;&gt;crm_prd_info&lt;/font&gt;" style="swimlane;fontStyle=0;childLayout=stackLayout;horizontal=1;startSize=30;horizontalStack=0;resizeParent=1;resizeParentMax=0;resizeLast=0;collapsible=1;marginBottom=0;whiteSpace=wrap;html=1;rounded=1;fillColor=#dae8fc;strokeColor=#6c8ebf;" parent="1" vertex="1">
          <mxGeometry x="377.5" y="350" width="140" height="60" as="geometry">
            <mxRectangle x="300" y="210" width="60" height="30" as="alternateBounds" />
          </mxGeometry>
        </mxCell>
        <mxCell id="X1ZDhWzWRRGKxh8vsN9t-8" value="&lt;span style=&quot;font-size: 15px;&quot;&gt;prd_key&lt;/span&gt;" style="text;strokeColor=none;fillColor=none;align=left;verticalAlign=middle;spacingLeft=4;spacingRight=4;overflow=hidden;points=[[0,0.5],[1,0.5]];portConstraint=eastwest;rotatable=0;whiteSpace=wrap;html=1;" parent="X1ZDhWzWRRGKxh8vsN9t-7" vertex="1">
          <mxGeometry y="30" width="140" height="30" as="geometry" />
        </mxCell>
        <mxCell id="X1ZDhWzWRRGKxh8vsN9t-9" value="&lt;span style=&quot;font-size: 14px;&quot;&gt;Current &amp;amp; History Product Information&lt;/span&gt;" style="text;html=1;align=center;verticalAlign=middle;whiteSpace=wrap;rounded=0;" parent="1" vertex="1">
          <mxGeometry x="320" y="320" width="255" height="30" as="geometry" />
        </mxCell>
        <mxCell id="X1ZDhWzWRRGKxh8vsN9t-10" value="&lt;font style=&quot;font-size: 15px;&quot;&gt;crm_sales_details&lt;/font&gt;" style="swimlane;fontStyle=0;childLayout=stackLayout;horizontal=1;startSize=30;horizontalStack=0;resizeParent=1;resizeParentMax=0;resizeLast=0;collapsible=1;marginBottom=0;whiteSpace=wrap;html=1;rounded=1;fillColor=#dae8fc;strokeColor=#6c8ebf;" parent="1" vertex="1">
          <mxGeometry x="65" y="250" width="140" height="90" as="geometry">
            <mxRectangle x="300" y="210" width="60" height="30" as="alternateBounds" />
          </mxGeometry>
        </mxCell>
        <mxCell id="X1ZDhWzWRRGKxh8vsN9t-11" value="&lt;span style=&quot;font-size: 15px;&quot;&gt;cst_id&lt;/span&gt;" style="text;strokeColor=none;fillColor=none;align=left;verticalAlign=middle;spacingLeft=4;spacingRight=4;overflow=hidden;points=[[0,0.5],[1,0.5]];portConstraint=eastwest;rotatable=0;whiteSpace=wrap;html=1;" parent="X1ZDhWzWRRGKxh8vsN9t-10" vertex="1">
          <mxGeometry y="30" width="140" height="30" as="geometry" />
        </mxCell>
        <mxCell id="X1ZDhWzWRRGKxh8vsN9t-13" value="&lt;span style=&quot;font-size: 15px;&quot;&gt;prd_key&lt;/span&gt;" style="text;strokeColor=none;fillColor=none;align=left;verticalAlign=middle;spacingLeft=4;spacingRight=4;overflow=hidden;points=[[0,0.5],[1,0.5]];portConstraint=eastwest;rotatable=0;whiteSpace=wrap;html=1;" parent="X1ZDhWzWRRGKxh8vsN9t-10" vertex="1">
          <mxGeometry y="60" width="140" height="30" as="geometry" />
        </mxCell>
        <mxCell id="X1ZDhWzWRRGKxh8vsN9t-12" value="&lt;span style=&quot;font-size: 14px;&quot;&gt;Transactional Records about Sales &amp;amp; Orders&lt;/span&gt;" style="text;html=1;align=center;verticalAlign=middle;whiteSpace=wrap;rounded=0;" parent="1" vertex="1">
          <mxGeometry x="40" y="215" width="190" height="30" as="geometry" />
        </mxCell>
        <mxCell id="X1ZDhWzWRRGKxh8vsN9t-14" style="edgeStyle=orthogonalEdgeStyle;rounded=0;orthogonalLoop=1;jettySize=auto;html=1;" parent="1" source="X1ZDhWzWRRGKxh8vsN9t-11" target="X1ZDhWzWRRGKxh8vsN9t-2" edge="1">
          <mxGeometry relative="1" as="geometry" />
        </mxCell>
        <mxCell id="X1ZDhWzWRRGKxh8vsN9t-15" style="edgeStyle=orthogonalEdgeStyle;rounded=0;orthogonalLoop=1;jettySize=auto;html=1;entryX=0;entryY=0.5;entryDx=0;entryDy=0;" parent="1" source="X1ZDhWzWRRGKxh8vsN9t-13" target="X1ZDhWzWRRGKxh8vsN9t-8" edge="1">
          <mxGeometry relative="1" as="geometry" />
        </mxCell>
        <mxCell id="vxh9PUzTvlkFb8qM6Y8l-1" value="&lt;font style=&quot;font-size: 15px;&quot;&gt;erp_cust_az12&lt;/font&gt;" style="swimlane;fontStyle=0;childLayout=stackLayout;horizontal=1;startSize=30;horizontalStack=0;resizeParent=1;resizeParentMax=0;resizeLast=0;collapsible=1;marginBottom=0;whiteSpace=wrap;html=1;rounded=1;fillColor=#fff2cc;strokeColor=#d6b656;" vertex="1" parent="1">
          <mxGeometry x="807.5" y="168" width="140" height="60" as="geometry">
            <mxRectangle x="300" y="210" width="60" height="30" as="alternateBounds" />
          </mxGeometry>
        </mxCell>
        <mxCell id="vxh9PUzTvlkFb8qM6Y8l-2" value="&lt;font style=&quot;font-size: 15px;&quot;&gt;cid&lt;/font&gt;" style="text;strokeColor=none;fillColor=none;align=left;verticalAlign=middle;spacingLeft=4;spacingRight=4;overflow=hidden;points=[[0,0.5],[1,0.5]];portConstraint=eastwest;rotatable=0;whiteSpace=wrap;html=1;" vertex="1" parent="vxh9PUzTvlkFb8qM6Y8l-1">
          <mxGeometry y="30" width="140" height="30" as="geometry" />
        </mxCell>
        <mxCell id="vxh9PUzTvlkFb8qM6Y8l-4" value="Extra Customer Information (Birthdate)" style="text;html=1;align=center;verticalAlign=middle;whiteSpace=wrap;rounded=0;" vertex="1" parent="1">
          <mxGeometry x="770" y="138" width="212.5" height="30" as="geometry" />
        </mxCell>
        <mxCell id="vxh9PUzTvlkFb8qM6Y8l-6" style="edgeStyle=orthogonalEdgeStyle;rounded=0;orthogonalLoop=1;jettySize=auto;html=1;" edge="1" parent="1" source="vxh9PUzTvlkFb8qM6Y8l-2" target="vxh9PUzTvlkFb8qM6Y8l-5">
          <mxGeometry relative="1" as="geometry" />
        </mxCell>
        <mxCell id="vxh9PUzTvlkFb8qM6Y8l-7" value="&lt;font style=&quot;font-size: 15px;&quot;&gt;erp_loc_a101&lt;/font&gt;" style="swimlane;fontStyle=0;childLayout=stackLayout;horizontal=1;startSize=30;horizontalStack=0;resizeParent=1;resizeParentMax=0;resizeLast=0;collapsible=1;marginBottom=0;whiteSpace=wrap;html=1;rounded=1;fillColor=#fff2cc;strokeColor=#d6b656;" vertex="1" parent="1">
          <mxGeometry x="807.5" y="303" width="140" height="60" as="geometry">
            <mxRectangle x="300" y="210" width="60" height="30" as="alternateBounds" />
          </mxGeometry>
        </mxCell>
        <mxCell id="vxh9PUzTvlkFb8qM6Y8l-8" value="&lt;font style=&quot;font-size: 15px;&quot;&gt;cid&lt;/font&gt;" style="text;strokeColor=none;fillColor=none;align=left;verticalAlign=middle;spacingLeft=4;spacingRight=4;overflow=hidden;points=[[0,0.5],[1,0.5]];portConstraint=eastwest;rotatable=0;whiteSpace=wrap;html=1;" vertex="1" parent="vxh9PUzTvlkFb8qM6Y8l-7">
          <mxGeometry y="30" width="140" height="30" as="geometry" />
        </mxCell>
        <mxCell id="vxh9PUzTvlkFb8qM6Y8l-9" style="edgeStyle=orthogonalEdgeStyle;rounded=0;orthogonalLoop=1;jettySize=auto;html=1;exitX=0;exitY=0.5;exitDx=0;exitDy=0;entryX=1;entryY=0.5;entryDx=0;entryDy=0;" edge="1" parent="1" source="vxh9PUzTvlkFb8qM6Y8l-8" target="vxh9PUzTvlkFb8qM6Y8l-5">
          <mxGeometry relative="1" as="geometry" />
        </mxCell>
        <mxCell id="vxh9PUzTvlkFb8qM6Y8l-10" value="Location Of Customers (Country)" style="text;html=1;align=center;verticalAlign=middle;whiteSpace=wrap;rounded=0;" vertex="1" parent="1">
          <mxGeometry x="770" y="273" width="215" height="30" as="geometry" />
        </mxCell>
        <mxCell id="vxh9PUzTvlkFb8qM6Y8l-11" value="&lt;font style=&quot;font-size: 15px;&quot;&gt;erp_px_cat_g1v2&lt;/font&gt;" style="swimlane;fontStyle=0;childLayout=stackLayout;horizontal=1;startSize=30;horizontalStack=0;resizeParent=1;resizeParentMax=0;resizeLast=0;collapsible=1;marginBottom=0;whiteSpace=wrap;html=1;rounded=1;fillColor=#fff2cc;strokeColor=#d6b656;" vertex="1" parent="1">
          <mxGeometry x="790" y="420.5" width="140" height="60" as="geometry">
            <mxRectangle x="300" y="210" width="60" height="30" as="alternateBounds" />
          </mxGeometry>
        </mxCell>
        <mxCell id="vxh9PUzTvlkFb8qM6Y8l-12" value="&lt;span style=&quot;font-size: 15px;&quot;&gt;id&lt;/span&gt;" style="text;strokeColor=none;fillColor=none;align=left;verticalAlign=middle;spacingLeft=4;spacingRight=4;overflow=hidden;points=[[0,0.5],[1,0.5]];portConstraint=eastwest;rotatable=0;whiteSpace=wrap;html=1;" vertex="1" parent="vxh9PUzTvlkFb8qM6Y8l-11">
          <mxGeometry y="30" width="140" height="30" as="geometry" />
        </mxCell>
        <mxCell id="vxh9PUzTvlkFb8qM6Y8l-13" value="Product Categories" style="text;html=1;align=center;verticalAlign=middle;whiteSpace=wrap;rounded=0;" vertex="1" parent="1">
          <mxGeometry x="778.13" y="390.5" width="163.75" height="30" as="geometry" />
        </mxCell>
        <mxCell id="vxh9PUzTvlkFb8qM6Y8l-14" style="edgeStyle=orthogonalEdgeStyle;rounded=0;orthogonalLoop=1;jettySize=auto;html=1;entryX=1;entryY=0.5;entryDx=0;entryDy=0;" edge="1" parent="1" source="vxh9PUzTvlkFb8qM6Y8l-12" target="X1ZDhWzWRRGKxh8vsN9t-8">
          <mxGeometry relative="1" as="geometry" />
        </mxCell>
        <mxCell id="vxh9PUzTvlkFb8qM6Y8l-15" value="" style="rounded=1;whiteSpace=wrap;html=1;arcSize=21;fillColor=none;dashed=1;strokeColor=#6c8ebf;fillStyle=hatch;" vertex="1" parent="1">
          <mxGeometry x="20" y="150" width="560" height="330" as="geometry" />
        </mxCell>
        <mxCell id="vxh9PUzTvlkFb8qM6Y8l-16" value="&lt;font style=&quot;font-size: 35px;&quot;&gt;&lt;b&gt;CRM&lt;/b&gt;&lt;/font&gt;" style="rounded=1;whiteSpace=wrap;html=1;fillColor=#f5f5f5;fontColor=#333333;strokeColor=#666666;" vertex="1" parent="1">
          <mxGeometry x="230" y="118" width="120" height="60" as="geometry" />
        </mxCell>
        <mxCell id="vxh9PUzTvlkFb8qM6Y8l-17" value="" style="rounded=1;whiteSpace=wrap;html=1;arcSize=21;fillColor=none;dashed=1;strokeColor=#d6b656;fillStyle=hatch;" vertex="1" parent="1">
          <mxGeometry x="630.01" y="121.5" width="460" height="387" as="geometry" />
        </mxCell>
        <mxCell id="vxh9PUzTvlkFb8qM6Y8l-18" value="&lt;font style=&quot;font-size: 35px;&quot;&gt;&lt;b&gt;ERP&lt;/b&gt;&lt;/font&gt;" style="rounded=1;whiteSpace=wrap;html=1;fillColor=#fff2cc;strokeColor=#d6b656;" vertex="1" parent="1">
          <mxGeometry x="816.25" y="78" width="120" height="60" as="geometry" />
        </mxCell>
      </root>
    </mxGraphModel>
  </diagram>
</mxfile>
